<svg id="Capa_1" enable-background="new 0 0 512 512" height="512" viewBox="0 0 512 512" width="512" xmlns="http://www.w3.org/2000/svg"><g><path d="m259.75 400.73c-2.285 1.477-5.219 1.474-7.5 0l-197.676-130.06-51.556 70.507c-2.345 3.207-1.509 7.727 1.828 9.884l247.404 159.833c2.28 1.473 5.213 1.477 7.5 0l3.126-2.019v-110.164z" fill="#23a8fe"/><g><path d="m109.424 306.758-54.85-36.088-51.556 70.507c-2.345 3.207-1.509 7.727 1.828 9.884l61.256 39.574z" fill="#0193fa"/></g><path d="m256 401.837v110.163c1.304 0 2.608-.369 3.75-1.106l247.404-159.833c3.337-2.156 4.174-6.676 1.828-9.883l-50.89-69.596-198.342 129.148c-1.142.738-2.446 1.107-3.75 1.107z" fill="#60b8fe"/><path d="m259.75 290.567c-1.141.737-2.445 1.106-3.75 1.106-1.304 0-2.609-.369-3.75-1.106l-143.395-94.131-55.45 75.832 198.845 128.462c1.141.737 2.446 1.106 3.75 1.106s2.608-.369 3.75-1.106l3.126-2.019v-110.163z" fill="#00ba66"/><path d="m151.833 224.649-42.978-28.213-55.45 75.833 55.36 35.764z" fill="#00a855"/><path d="m403.313 196.666-143.563 93.901c-1.141.737-2.445 1.106-3.75 1.106v110.163c1.304 0 2.608-.369 3.75-1.106l198.845-128.462z" fill="#43cb8e"/><path d="m259.75 180.404c-1.141.737-2.445 1.106-3.75 1.106-1.304 0-2.609-.369-3.75-1.106l-88.978-58.387-55.158 75.433 144.136 93.118c1.141.737 2.446 1.106 3.75 1.106s2.608-.369 3.75-1.106l3.126-2.019v-110.164z" fill="#ffd301"/><path d="m194.319 142.39-31.047-20.374-55.158 75.433 43.314 27.983z" fill="#ffc20c"/><path d="m348.509 121.717-88.76 58.686c-1.141.737-2.445 1.106-3.75 1.106v110.163c1.304 0 2.608-.369 3.75-1.106l144.136-93.118z" fill="#fee55a"/><path d="m261.578 2.831c-1.38-1.888-3.479-2.831-5.578-2.831s-4.198.943-5.578 2.831l-87.599 119.799 89.427 57.774c1.141.737 2.446 1.106 3.75 1.106s2.608-.369 3.75-1.106l3.126-2.019v-173.78z" fill="#ff4756"/><path d="m262.875 9.657v-5.052l-1.297-1.774c-1.38-1.888-3.479-2.831-5.578-2.831s-4.198.943-5.578 2.831l-87.599 119.799 31.269 20.201z" fill="#fc2d39"/><path d="m256 0v181.51c1.304 0 2.608-.369 3.75-1.106l89.427-57.774-87.599-119.799c-1.38-1.888-3.479-2.831-5.578-2.831z" fill="#ff656f"/></g></svg>