<svg height="496pt" viewBox="0 0 496 496" width="496pt" xmlns="http://www.w3.org/2000/svg"><path d="m248 160c-132.550781 0-240 39.398438-240 88 0 38.703125 82.449219 70.984375 192 78.398438-109.550781-7.414063-192-39.695313-192-78.398438 0 132.546875 107.453125 240 240 240s240-107.453125 240-240c0 38.703125-82.449219 70.984375-192 78.398438 109.550781-7.414063 192-39.695313 192-78.398438 0-48.601562-107.449219-88-240-88zm0 192c-13.253906 0-24-10.746094-24-24s10.746094-24 24-24 24 10.746094 24 24-10.746094 24-24 24zm0 0" fill="#c2fb3b"/><path d="m248 8c-132.546875 0-240 107.453125-240 240 0-48.601562 107.449219-88 240-88s240 39.398438 240 88c0-132.546875-107.453125-240-240-240zm0 56" fill="#5f7c1d"/><path d="m272 328c0 13.253906-10.746094 24-24 24s-24-10.746094-24-24 10.746094-24 24-24 24 10.746094 24 24zm0 0" fill="#acabb1"/><path d="m248 0c-136.964844 0-248 111.035156-248 248s111.035156 248 248 248 248-111.035156 248-248c-.15625-136.902344-111.097656-247.84375-248-248zm0 480c-114.839844-.148438-212.347656-84.175781-229.457031-197.734375 27.488281 24.445313 86.257812 45.734375 180.914062 52.132813h.542969c4.417969.148437 8.121094-3.3125 8.269531-7.730469.144531-4.417969-3.316406-8.121094-7.734375-8.269531-90.703125-6.125-184.535156-34.140626-184.535156-70.398438.152344-5.992188 2.101562-11.800781 5.601562-16.671875 2.460938-3.667969 1.484376-8.640625-2.1875-11.105469-.507812-.277344-1.042968-.503906-1.597656-.671875 14.300782-115.980469 112.660156-203.207031 229.519532-203.546875 116.859374-.339844 215.71875 86.316406 230.695312 202.210938-.851562.210937-1.664062.566406-2.398438 1.050781-3.601562 2.554687-4.453124 7.546875-1.898437 11.148437 3.882813 5.0625 6.074219 11.210938 6.265625 17.585938 0 36.257812-93.832031 64.273438-184.535156 70.398438-4.417969.148437-7.878906 3.851562-7.734375 8.269531.148437 4.417969 3.851562 7.878906 8.269531 7.730469h.542969c94.65625-6.398438 153.425781-27.6875 180.914062-52.132813-17.109375 113.558594-114.617187 197.585937-229.457031 197.734375zm0 0"/><path d="m248 296c-17.671875 0-32 14.328125-32 32s14.328125 32 32 32 32-14.328125 32-32-14.328125-32-32-32zm0 48c-8.835938 0-16-7.164062-16-16s7.164062-16 16-16 16 7.164062 16 16-7.164062 16-16 16zm0 0"/><path d="m345.246094 175.625c8 1.335938 15.792968 2.824219 23.203125 4.429688.558593.121093 1.128906.179687 1.703125.175781 4.082031-.011719 7.5-3.09375 7.929687-7.152344.429688-4.058594-2.261719-7.792969-6.25-8.664063-7.648437-1.652343-15.710937-3.199218-23.953125-4.574218-4.359375-.726563-8.480468 2.21875-9.207031 6.574218-.726563 4.359376 2.21875 8.484376 6.574219 9.210938zm0 0"/><path d="m73.375 179.070312c-7.753906 2.894532-15.359375 6.1875-22.773438 9.867188-3.328124 1.65625-5.074218 5.382812-4.21875 9 .855469 3.613281 4.085938 6.164062 7.800782 6.160156 1.242187 0 2.46875-.292968 3.578125-.851562 6.917969-3.429688 14.011719-6.503906 21.246093-9.207032 2.808594-.898437 4.898438-3.269531 5.429688-6.171874.535156-2.902344-.574219-5.863282-2.878906-7.703126-2.308594-1.839843-5.441406-2.257812-8.152344-1.09375zm0 0"/><path d="m415.800781 193.601562c7.253907 2.667969 14.367188 5.703126 21.3125 9.09375 3.964844 1.953126 8.761719.316407 10.710938-3.648437s.316406-8.761719-3.648438-10.710937c-7.4375-3.636719-15.058593-6.882813-22.832031-9.734376-2.703125-1.101562-5.792969-.640624-8.058594 1.203126-2.265625 1.839843-3.347656 4.769531-2.824218 7.640624.523437 2.871094 2.570312 5.230469 5.339843 6.15625zm0 0"/><path d="m272.246094 168.449219c8 .292969 15.890625.734375 23.664062 1.328125h.609375c4.417969.164062 8.132813-3.285156 8.296875-7.707032.164063-4.417968-3.285156-8.128906-7.703125-8.292968-7.953125-.609375-16.046875-1.0625-24.28125-1.363282-2.132812-.128906-4.226562.625-5.792969 2.078126-1.566406 1.457031-2.46875 3.488281-2.496093 5.628906-.085938 2.125.675781 4.203125 2.121093 5.765625 1.445313 1.5625 3.457032 2.484375 5.582032 2.5625zm0 0"/><path d="m230.136719 160.191406c-.027344-2.140625-.933594-4.175781-2.503907-5.628906-1.574218-1.453125-3.671874-2.195312-5.808593-2.050781-8.21875.320312-16.304688.789062-24.257813 1.410156-4.417968.164063-7.863281 3.878906-7.699218 8.296875.167968 4.417969 3.882812 7.867188 8.300781 7.703125h.617187c7.757813-.59375 15.648438-1.050781 23.671875-1.378906 2.128907-.082031 4.132813-1.011719 5.574219-2.578125s2.199219-3.644532 2.105469-5.773438zm0 0"/><path d="m146.824219 160.0625c-8.199219 1.378906-16.273438 2.9375-24 4.640625-4.316407.957031-7.039063 5.226563-6.085938 9.539063.957031 4.316406 5.226563 7.039062 9.542969 6.085937 7.4375-1.648437 15.199219-3.160156 23.199219-4.488281 4.277343-.808594 7.125-4.890625 6.40625-9.183594-.722657-4.296875-4.746094-7.226562-9.054688-6.59375zm0 0"/><path d="m248 288c4.417969 0 8-3.582031 8-8v-24c0-4.417969-3.582031-8-8-8s-8 3.582031-8 8v24c0 4.417969 3.582031 8 8 8zm0 0"/><path d="m248 216c4.417969 0 8-3.582031 8-8v-24c0-4.417969-3.582031-8-8-8s-8 3.582031-8 8v24c0 4.417969 3.582031 8 8 8zm0 0"/><path d="m248 144c4.417969 0 8-3.582031 8-8v-24c0-4.417969-3.582031-8-8-8s-8 3.582031-8 8v24c0 4.417969 3.582031 8 8 8zm0 0"/><path d="m248 72c4.417969 0 8-3.582031 8-8v-24c0-4.417969-3.582031-8-8-8s-8 3.582031-8 8v24c0 4.417969 3.582031 8 8 8zm0 0"/><path d="m256 472v-24c0-4.417969-3.582031-8-8-8s-8 3.582031-8 8v24c0 4.417969 3.582031 8 8 8s8-3.582031 8-8zm0 0"/><path d="m248 368c-4.417969 0-8 3.582031-8 8v24c0 4.417969 3.582031 8 8 8s8-3.582031 8-8v-24c0-4.417969-3.582031-8-8-8zm0 0"/></svg>